<svg width="22" height="18" viewBox="0 0 22 18" fill="none" xmlns="http://www.w3.org/2000/svg">
    <path d="M17.5 0.333334L19.4717 4.27667C19.5584 4.45 19.4284 4.66667 19.2334 4.66667H17.0884C16.6767 4.66667 16.2975 4.43917 16.1242 4.07083L14.25 0.333334H12.0834L14.055 4.27667C14.1417 4.45 14.0117 4.66667 13.8167 4.66667H11.6717C11.26 4.66667 10.8809 4.43917 10.7075 4.07083L8.83335 0.333334H6.66669L8.63835 4.27667C8.72502 4.45 8.59502 4.66667 8.40002 4.66667H6.25502C5.84335 4.66667 5.46419 4.43917 5.28002 4.07083L3.41669 0.333334H2.33335C1.14169 0.333334 0.166687 1.30833 0.166687 2.5V15.5C0.166687 16.6917 1.14169 17.6667 2.33335 17.6667H19.6667C20.8584 17.6667 21.8334 16.6917 21.8334 15.5V1.41667C21.8334 0.820834 21.3459 0.333334 20.75 0.333334H17.5Z" fill="#E6EEF9"/>
</svg>
