<svg width="42" height="32" viewBox="0 0 42 32" fill="none" xmlns="http://www.w3.org/2000/svg">
    <path d="M28.0253 31.924C21.6862 32.2194 21.6303 20.0696 20.7725 15.4123C18.7405 4.37922 14.3698 0.0731667 6.7195 0.031923C5.8382 0.0141806 4.96171 0.168302 4.13745 0.485957C6.99435 -0.589224 12.2885 0.761861 13.468 8.14306C14.6475 15.5243 8.62247 24.7661 19.5605 30.4005C22.274 31.7971 25.0757 32.1849 28.0253 31.924Z" fill="white"/>
    <path d="M9.50265 20.3481C7.78117 15.9037 10.5958 11.5088 10.066 6.50051C9.60511 2.14077 5.25821 -0.80887 2.31914 1.60033C-1.31266 4.57699 -0.118147 8.85603 2.09114 11.4906L9.50265 20.3481Z" fill="white"/>
    <path d="M12.488 0C19.5516 0 23.3757 7.31685 25.2091 14.895C27.2372 23.2796 32.4807 35.4333 39.3904 24.8468C41.0128 22.3735 41.9049 19.4796 41.9613 16.5071C41.9613 16.5071 41.2577 20.1028 37.9305 20.1028C35.3243 20.1028 32.5678 19.2068 28.9041 10.5424C25.2405 1.87801 20.1925 0 12.488 0Z" fill="white"/>
    <path d="M22.0996 0.0373176C24.8271 0.0373176 29.6265 2.58945 32.604 9.16107C35.5816 15.7327 38.4577 15.0863 39.6861 14.3034C41.123 13.3878 41.4597 9.85616 38.8245 6.36645C35.3749 1.798 31.4305 -0.265255 22.0996 0.0373176Z" fill="white"/>
</svg>
