<svg width="24" height="22" viewBox="0 0 24 22" fill="none" xmlns="http://www.w3.org/2000/svg">
    <path d="M10.375 16.4708L14.6866 14.0008C15.4125 13.5892 15.4125 12.5383 14.6866 12.1158L10.375 9.64584C9.64915 9.23417 8.74998 9.765 8.74998 10.5883V15.5175C8.74998 16.3517 9.64915 16.8825 10.375 16.4708ZM21.75 4.39167H13.5275L16.7125 1.20667C16.9291 0.990002 16.9291 0.654168 16.7125 0.437502C16.4958 0.220835 16.16 0.220835 15.9433 0.437502L12 4.38084L8.05665 0.437502C7.83998 0.220835 7.50415 0.220835 7.28748 0.437502C7.07081 0.654168 7.07081 0.990002 7.28748 1.20667L10.4725 4.39167H2.24998C1.05831 4.39167 0.083313 5.35584 0.083313 6.55834V19.5583C0.083313 20.75 1.05831 21.725 2.24998 21.725H21.75C22.9416 21.725 23.9166 20.75 23.9166 19.5583V6.55834C23.9166 5.35584 22.9416 4.39167 21.75 4.39167ZM20.6666 19.5583H3.33331C2.73748 19.5583 2.24998 19.0708 2.24998 18.475V7.64167C2.24998 7.04584 2.73748 6.55834 3.33331 6.55834H20.6666C21.2625 6.55834 21.75 7.04584 21.75 7.64167V18.475C21.75 19.0708 21.2625 19.5583 20.6666 19.5583Z" fill="#E6EEF9"/>
</svg>